M48
;Layer_Color=9474304
;FILE_FORMAT=2:4
INCH,LZ
;TYPE=PLATED
T1F00S00C0.0118
T2F00S00C0.0157
T4F00S00C0.0315
T5F00S00C0.0354
T6F00S00C0.0394
T7F00S00C0.0433
T8F00S00C0.0450
T9F00S00C0.0551
T11F00S00C0.1299
;TYPE=NON_PLATED
T12F00S00C0.0295
%
T01
X03435Y02765
X03555Y0277
X0399
X0298Y029
X03055Y0303
X02765Y0277
X0252Y0286
X025Y0304
X0246Y03355
X023806Y035194
X0267Y03285
X0278Y0334
X0283Y0335
X02885Y0334
X02935
X03Y03355
X0293Y04035
X0288Y04
X0283
X03025Y04115
X031Y0434
X029939Y0463
X02737Y04629
X02706Y04579
X0262Y0462
X02665Y04475
X02525Y04325
X0273Y0421
X03205Y04165
X0326Y04405
X03131Y04482
X03405Y03715
X0366Y036173
X03645Y03145
X0349
X03925
X0323Y03375
X0294Y0485
X02796Y04729
T02
X04525Y027655
X04535Y0347
X04545
X04555
X04565
X04575
X04585
X04595
X04605
X04615
X046088Y03885
X0397
X0387Y03685
X041Y0371
X0414Y0361
X033425Y038875
X04755Y03715
X0491Y03505
X0495
X0499
X0503
X0507
X0511
X0515
Y0346
X0511
X0507
X0503
X0499
X0495
X0491
Y03415
X0495
X0499
X0503
X0507
X0511
X0515
Y0337
X0511
X0507
X0503
X0499
X0495
X0491
Y03325
X0495
X0499
X0503
X0507
X0511
X0515
Y0328
X0511
X0507
X0503
X0499
X0495
X0491
Y03235
X0495
X0499
X0503
X0507
X0511
X0515
Y0319
X0511
X0507
X0503
X0499
X0495
X0491
Y03145
X0495
X0499
X0503
X0507
X0511
X0515
T04
X04351Y02916
Y03016
T05
X04655Y028711
Y030089
T06
X0236Y0286
Y0296
Y0306
Y0316
T07
X02365Y02625
X02465
T08
X03365Y040697
X036012Y039909
X038374Y040697
X040175
X042537Y039909
X044899Y040697
X0467
Y0455
X044975
X040175
X03845
X03365
X0515
X051424Y040697
X049062Y039909
T09
X047Y0479
X049
X051005
X044528
X042523
X040522
X03805
X036045
X034045
T11
X0271Y0295
X0509Y03655
X03205Y0477
T12
X025Y045324
Y0476
M30
