G04*
G04 #@! TF.GenerationSoftware,Altium Limited,Altium Designer,21.3.2 (30)*
G04*
G04 Layer_Color=65535*
%FSTAX24Y24*%
%MOIN*%
G70*
G04*
G04 #@! TF.SameCoordinates,4D29D3D3-CB23-4B61-9135-448C7089281F*
G04*
G04*
G04 #@! TF.FilePolarity,Positive*
G04*
G01*
G75*
%ADD10C,0.0098*%
%ADD11C,0.0079*%
%ADD12C,0.0070*%
%ADD13C,0.0100*%
%ADD14C,0.0060*%
%ADD15C,0.0050*%
%ADD16C,0.0150*%
%ADD17C,0.0040*%
%ADD18C,0.0080*%
%ADD19R,0.1000X0.0500*%
G36*
X035705Y033949D02*
Y03371D01*
X03547D01*
Y033949D01*
X035705D01*
D02*
G37*
G36*
X037805D02*
Y03371D01*
X03757D01*
Y033949D01*
X037805D01*
D02*
G37*
G36*
X039905D02*
Y03371D01*
X03967D01*
Y033949D01*
X039905D01*
D02*
G37*
D10*
X046562Y038342D02*
G03*
X046562Y038342I-000049J0D01*
G01*
X04Y03835D02*
G03*
X04Y03835I-000049J0D01*
G01*
X0336Y038342D02*
G03*
X0336Y038342I-000049J0D01*
G01*
X033041Y029381D02*
G03*
X033041Y029381I-000049J0D01*
G01*
X031799Y042649D02*
G03*
X031799Y042649I-000049J0D01*
G01*
Y044749D02*
G03*
X031799Y044749I-000049J0D01*
G01*
D11*
X03993Y033831D02*
G03*
X03993Y033831I-000142J0D01*
G01*
X03783D02*
G03*
X03783Y033831I-000142J0D01*
G01*
X03573D02*
G03*
X03573Y033831I-000142J0D01*
G01*
X02335Y033863D02*
G03*
X02335Y033863I-000039J0D01*
G01*
X049368Y03845D02*
X049447D01*
X049053D02*
X049093D01*
X049368Y038293D02*
Y038647D01*
X049093Y03845D02*
X049368Y038647D01*
X049093Y03845D02*
X049368Y038293D01*
X049093Y038253D02*
Y038647D01*
X047774Y03855D02*
Y0391D01*
X0507D01*
X047774Y03855D02*
X04785D01*
Y0391D01*
Y0378D02*
Y03835D01*
X047774D02*
X04785D01*
X0507Y038913D02*
Y0391D01*
X047774Y0378D02*
Y03835D01*
X0507Y0378D02*
Y037987D01*
X047774Y0378D02*
X0507D01*
X042668Y0384D02*
X042747D01*
X042353D02*
X042393D01*
X042668Y038243D02*
Y038597D01*
X042393Y0384D02*
X042668Y038597D01*
X042393Y0384D02*
X042668Y038243D01*
X042393Y038203D02*
Y038597D01*
X041074Y0385D02*
Y03905D01*
X044D01*
X041074Y0385D02*
X04115D01*
Y03905D01*
Y03775D02*
Y0383D01*
X041074D02*
X04115D01*
X044Y038863D02*
Y03905D01*
X041074Y03775D02*
Y0383D01*
X044Y03775D02*
Y037937D01*
X041074Y03775D02*
X044D01*
X039394Y033378D02*
Y035622D01*
X041206D01*
Y033378D02*
Y035622D01*
X039394Y033378D02*
X041206D01*
X037294D02*
Y035622D01*
X039106D01*
Y033378D02*
Y035622D01*
X037294Y033378D02*
X039106D01*
X035194D02*
Y035622D01*
X037006D01*
Y033378D02*
Y035622D01*
X035194Y033378D02*
X037006D01*
X036368Y03845D02*
X036447D01*
X036053D02*
X036093D01*
X036368Y038293D02*
Y038647D01*
X036093Y03845D02*
X036368Y038647D01*
X036093Y03845D02*
X036368Y038293D01*
X036093Y038253D02*
Y038647D01*
X034774Y03855D02*
Y0391D01*
X0377D01*
X034774Y03855D02*
X03485D01*
Y0391D01*
Y0378D02*
Y03835D01*
X034774D02*
X03485D01*
X0377Y038913D02*
Y0391D01*
X034774Y0378D02*
Y03835D01*
X0377Y0378D02*
Y037987D01*
X034774Y0378D02*
X0377D01*
X047568Y03585D02*
X047647D01*
X047253D02*
X047293D01*
X047568Y035693D02*
Y036047D01*
X047293Y03585D02*
X047568Y036047D01*
X047293Y03585D02*
X047568Y035693D01*
X047293Y035653D02*
Y036047D01*
X045974Y03595D02*
Y0365D01*
X0489D01*
X045974Y03595D02*
X04605D01*
Y0365D01*
Y0352D02*
Y03575D01*
X045974D02*
X04605D01*
X0489Y036313D02*
Y0365D01*
X045974Y0352D02*
Y03575D01*
X0489Y0352D02*
Y035387D01*
X045974Y0352D02*
X0489D01*
X02515Y02575D02*
Y02675D01*
X02315Y02575D02*
X02515D01*
X02315D02*
Y02675D01*
X02515D01*
X031299Y032019D02*
X032401D01*
X031299Y029381D02*
X032401D01*
X031299D02*
Y032019D01*
X032401Y029381D02*
Y032019D01*
D12*
X04475Y0335D02*
G03*
X0444Y03315I0J-00035D01*
G01*
Y03325D02*
G03*
X04415Y0335I-00025J0D01*
G01*
D02*
G03*
X0439Y03325I0J-00025D01*
G01*
Y0333D02*
G03*
X0437Y0335I-0002J0D01*
G01*
D02*
G03*
X0435Y0333I0J-0002D01*
G01*
D02*
G03*
X0433Y0335I-0002J0D01*
G01*
D02*
G03*
X0431Y0333I0J-0002D01*
G01*
D02*
G03*
X0429Y0335I-0002J0D01*
G01*
D02*
G03*
X0427Y0333I0J-0002D01*
G01*
D02*
G03*
X0425Y0335I-0002J0D01*
G01*
D02*
G03*
X0423Y0333I0J-0002D01*
G01*
Y03315D02*
G03*
X04195Y0335I-00035J0D01*
G01*
X042087Y044827D02*
G03*
X042087Y044827I-000178J0D01*
G01*
X043597Y044817D02*
G03*
X043597Y044817I-000178J0D01*
G01*
X042704Y042504D02*
G03*
X042704Y042504I-000178J0D01*
G01*
X043116Y040552D02*
G03*
X041956Y040562I-000585J-000575D01*
G01*
X036591Y040552D02*
G03*
X035431Y040562I-000585J-000575D01*
G01*
X036179Y042504D02*
G03*
X036179Y042504I-000178J0D01*
G01*
X037072Y044817D02*
G03*
X037072Y044817I-000178J0D01*
G01*
X035562Y044827D02*
G03*
X035562Y044827I-000178J0D01*
G01*
X049641Y040552D02*
G03*
X048481Y040562I-000585J-000575D01*
G01*
X049229Y042504D02*
G03*
X049229Y042504I-000178J0D01*
G01*
X050122Y044817D02*
G03*
X050122Y044817I-000178J0D01*
G01*
X048612Y044827D02*
G03*
X048612Y044827I-000178J0D01*
G01*
X04495Y0311D02*
Y0354D01*
X04185D02*
X04495D01*
X04185Y0311D02*
Y0354D01*
Y0311D02*
X04495D01*
X04475Y0335D02*
X04495D01*
X0444Y03315D02*
Y03325D01*
X0439Y03315D02*
Y03325D01*
Y03315D02*
Y0333D01*
X0435Y03315D02*
Y0333D01*
Y03315D02*
Y0333D01*
X0431Y03315D02*
Y0333D01*
Y03315D02*
Y0333D01*
X0427Y03315D02*
Y0333D01*
Y03315D02*
Y0333D01*
X0423Y03315D02*
Y0333D01*
X04185Y0335D02*
X04195D01*
X05355Y02685D02*
Y03015D01*
X0488D02*
X05425D01*
X0488Y02685D02*
X05425D01*
X0488D02*
Y03015D01*
X05425Y02685D02*
Y03015D01*
X042137Y044735D02*
X042527Y044345D01*
X043419Y044995D02*
X043689Y045265D01*
X044349D01*
X041589D02*
X041849Y045005D01*
X040829Y045265D02*
X041589D01*
X042536Y040259D02*
Y042302D01*
X042526Y042702D02*
Y044345D01*
X043126Y040542D02*
X044256D01*
X040806Y040552D02*
X041946D01*
X039437Y039275D02*
Y046909D01*
X045643Y039275D02*
Y046909D01*
X039437Y039275D02*
X045643D01*
X039437Y046909D02*
X045643D01*
X032912D02*
X039118D01*
X032912Y039275D02*
X039118D01*
Y046909D01*
X032912Y039275D02*
Y046909D01*
X034281Y040552D02*
X035421D01*
X036601Y040542D02*
X037731D01*
X036001Y042702D02*
Y044345D01*
X036011Y040259D02*
Y042302D01*
X034304Y045265D02*
X035064D01*
X035324Y045005D01*
X037164Y045265D02*
X037824D01*
X036894Y044995D02*
X037164Y045265D01*
X035612Y044735D02*
X036002Y044345D01*
X045962Y046909D02*
X052168D01*
X045962Y039275D02*
X052168D01*
Y046909D01*
X045962Y039275D02*
Y046909D01*
X047331Y040552D02*
X048471D01*
X049651Y040542D02*
X050781D01*
X049051Y042702D02*
Y044345D01*
X049061Y040259D02*
Y042302D01*
X047354Y045265D02*
X048114D01*
X048374Y045005D01*
X050214Y045265D02*
X050874D01*
X049944Y044995D02*
X050214Y045265D01*
X048662Y044735D02*
X049052Y044345D01*
D13*
X048125Y0294D02*
G03*
X048125Y0294I-001575J0D01*
G01*
X04478Y02965D02*
G03*
X04478Y02965I-00128J0D01*
G01*
X022539Y048234D02*
X023082D01*
X022539Y044668D02*
Y048234D01*
X024044D02*
X024656D01*
X022539Y044668D02*
X023079D01*
X024047D02*
X024654D01*
X0498Y0349D02*
X0505D01*
X0507Y0347D01*
Y0319D02*
Y0347D01*
X0505Y0317D02*
X0507Y0319D01*
X0498Y0317D02*
X0505D01*
X0464Y0315D02*
Y0351D01*
Y0315D02*
X0498D01*
Y0351D01*
X0464D02*
X0498D01*
X044975Y0294D02*
X048125D01*
X04759D02*
X04767D01*
X04805Y02902D01*
X04706Y0294D02*
X04729D01*
X04795Y02874D01*
X04677Y0294D02*
X04689D01*
X0478Y02849D01*
X04632Y0294D02*
X0465D01*
X04763Y02827D01*
X04601Y0294D02*
X04609D01*
X0474Y02809D01*
X04569Y0294D02*
X04714Y02795D01*
X04529Y0294D02*
X04682Y02787D01*
X04498Y02925D02*
Y02938D01*
Y02925D02*
X0464Y02783D01*
X04515Y0287D02*
Y02872D01*
Y0287D02*
X04586Y02799D01*
X04224Y02965D02*
X04475D01*
X04434D02*
X04444D01*
X04433D02*
X04442D01*
X04472Y02935D01*
X04408Y02965D02*
X0441D01*
X04463Y02912D01*
X04372Y02965D02*
X04378D01*
X04452Y02891D01*
X04344Y02965D02*
X04347D01*
X04437Y02875D01*
X04312Y02965D02*
X04314D01*
X04419Y0286D01*
X04275Y02965D02*
X04279D01*
X04397Y02847D01*
X04246Y02965D02*
X0437Y02841D01*
X04222Y02954D02*
Y02968D01*
Y02954D02*
X04337Y02839D01*
X03371Y03232D02*
Y03277D01*
Y03333D02*
Y03378D01*
X0321Y0328D02*
Y0333D01*
Y0328D02*
X0331D01*
Y0333D01*
X0321D02*
X0331D01*
X03149Y03378D02*
X03371D01*
X03149Y03232D02*
X03371D01*
X03149D02*
Y03277D01*
Y03333D02*
Y03378D01*
Y03528D02*
Y03573D01*
Y03427D02*
Y03472D01*
Y03427D02*
X03371D01*
X03149Y03573D02*
X03371D01*
X0321Y03525D02*
X0331D01*
Y03475D02*
Y03525D01*
X0321Y03475D02*
X0331D01*
X0321D02*
Y03525D01*
X03371Y03528D02*
Y03573D01*
Y03427D02*
Y03472D01*
X040169Y045489D02*
X040212Y045445D01*
X033644Y045489D02*
X033687Y045445D01*
X033045Y0519D02*
X03905D01*
X033045Y0471D02*
X03905D01*
X033045Y04715D02*
Y0519D01*
X03905Y0471D02*
Y0519D01*
X039523D02*
X045528D01*
X039523Y0471D02*
X045528D01*
X039523Y04715D02*
Y0519D01*
X045528Y0471D02*
Y0519D01*
X046694Y045489D02*
X046737Y045445D01*
X046Y0519D02*
X052005D01*
X046Y0471D02*
X052005D01*
X046Y04715D02*
Y0519D01*
X052005Y0471D02*
Y0519D01*
X0325Y03705D02*
Y03735D01*
X03265D01*
X0327Y0373D01*
Y0372D01*
X03265Y03715D01*
X0325D01*
X0326D02*
X0327Y03705D01*
X033D02*
X0328D01*
X033Y03725D01*
Y0373D01*
X03295Y03735D01*
X03285D01*
X0328Y0373D01*
X02315Y0433D02*
X0234D01*
X02345Y04335D01*
Y04345D01*
X0234Y0435D01*
X02315D01*
X0232Y0438D02*
X02315Y04375D01*
Y04365D01*
X0232Y0436D01*
X02325D01*
X0233Y04365D01*
Y04375D01*
X02335Y0438D01*
X0234D01*
X02345Y04375D01*
Y04365D01*
X0234Y0436D01*
X02315Y0439D02*
X02345D01*
Y04405D01*
X0234Y0441D01*
X02335D01*
X0233Y04405D01*
Y0439D01*
Y04405D01*
X02325Y0441D01*
X0232D01*
X02315Y04405D01*
Y0439D01*
X02345Y0442D02*
Y0443D01*
Y04425D01*
X02315D01*
X0232Y0442D01*
X02405Y04265D02*
X02395D01*
X0239Y0426D01*
Y0424D01*
X02395Y04235D01*
X02405D01*
X0241Y0424D01*
Y0426D01*
X02405Y04265D01*
X0244Y0426D02*
X02435Y04265D01*
X02425D01*
X0242Y0426D01*
Y04255D01*
X02425Y0425D01*
X02435D01*
X0244Y04245D01*
Y0424D01*
X02435Y04235D01*
X02425D01*
X0242Y0424D01*
X0247Y0426D02*
X02465Y04265D01*
X02455D01*
X0245Y0426D01*
Y0424D01*
X02455Y04235D01*
X02465D01*
X0247Y0424D01*
X0248Y04235D02*
X0249D01*
X02485D01*
Y04265D01*
X0248Y0426D01*
X0263Y04845D02*
Y0482D01*
X02635Y04815D01*
X02645D01*
X0265Y0482D01*
Y04845D01*
X0268D02*
X0266D01*
Y0483D01*
X0267Y04835D01*
X02675D01*
X0268Y0483D01*
Y0482D01*
X02675Y04815D01*
X02665D01*
X0266Y0482D01*
X029425Y0437D02*
Y044D01*
X029575D01*
X029625Y04395D01*
Y04385D01*
X029575Y0438D01*
X029425D01*
X029525D02*
X029625Y0437D01*
X029725D02*
X029825D01*
X029775D01*
Y044D01*
X029725Y04395D01*
X029975Y04375D02*
X030025Y0437D01*
X030125D01*
X030175Y04375D01*
Y04395D01*
X030125Y044D01*
X030025D01*
X029975Y04395D01*
Y0439D01*
X030025Y04385D01*
X030175D01*
X029425Y0419D02*
Y0422D01*
X029575D01*
X029625Y04215D01*
Y04205D01*
X029575Y042D01*
X029425D01*
X029525D02*
X029625Y0419D01*
X029725D02*
X029825D01*
X029775D01*
Y0422D01*
X029725Y04215D01*
X029975D02*
X030025Y0422D01*
X030125D01*
X030175Y04215D01*
Y0421D01*
X030125Y04205D01*
X030175Y042D01*
Y04195D01*
X030125Y0419D01*
X030025D01*
X029975Y04195D01*
Y042D01*
X030025Y04205D01*
X029975Y0421D01*
Y04215D01*
X030025Y04205D02*
X030125D01*
X0328Y040825D02*
X0325D01*
Y040975D01*
X03255Y041025D01*
X03265D01*
X0327Y040975D01*
Y040825D01*
Y040925D02*
X0328Y041025D01*
Y041125D02*
Y041225D01*
Y041175D01*
X0325D01*
X03255Y041125D01*
X0325Y041375D02*
Y041575D01*
X03255D01*
X03275Y041375D01*
X0328D01*
Y043025D02*
X0325D01*
Y043175D01*
X03255Y043225D01*
X03265D01*
X0327Y043175D01*
Y043025D01*
Y043125D02*
X0328Y043225D01*
Y043325D02*
Y043425D01*
Y043375D01*
X0325D01*
X03255Y043325D01*
X0325Y043775D02*
X03255Y043675D01*
X03265Y043575D01*
X03275D01*
X0328Y043625D01*
Y043725D01*
X03275Y043775D01*
X0327D01*
X03265Y043725D01*
Y043575D01*
X0308Y04445D02*
X0306D01*
X03055Y0444D01*
Y0443D01*
X0306Y04425D01*
X0308D01*
X03085Y0443D01*
Y0444D01*
X03075Y04435D02*
X03085Y04445D01*
Y0444D02*
X0308Y04445D01*
X03055Y04475D02*
Y04455D01*
X0307D01*
X03065Y04465D01*
Y0447D01*
X0307Y04475D01*
X0308D01*
X03085Y0447D01*
Y0446D01*
X0308Y04455D01*
Y0425D02*
X0306D01*
X03055Y04245D01*
Y04235D01*
X0306Y0423D01*
X0308D01*
X03085Y04235D01*
Y04245D01*
X03075Y0424D02*
X03085Y0425D01*
Y04245D02*
X0308Y0425D01*
X03085Y04275D02*
X03055D01*
X0307Y0426D01*
Y0428D01*
X0263Y0428D02*
Y0425D01*
X0265D01*
X02675D02*
Y0428D01*
X0266Y04265D01*
X0268D01*
X0263Y04225D02*
Y04195D01*
X0265D01*
X0266Y0422D02*
X02665Y04225D01*
X02675D01*
X0268Y0422D01*
Y04215D01*
X02675Y0421D01*
X0267D01*
X02675D01*
X0268Y04205D01*
Y042D01*
X02675Y04195D01*
X02665D01*
X0266Y042D01*
X02715Y043375D02*
X0271Y043325D01*
Y043225D01*
X02715Y043175D01*
X02735D01*
X0274Y043225D01*
Y043325D01*
X02735Y043375D01*
X0274Y043475D02*
Y043575D01*
Y043525D01*
X0271D01*
X02715Y043475D01*
Y043725D02*
X0271Y043775D01*
Y043875D01*
X02715Y043925D01*
X0272D01*
X02725Y043875D01*
X0273Y043925D01*
X02735D01*
X0274Y043875D01*
Y043775D01*
X02735Y043725D01*
X0273D01*
X02725Y043775D01*
X0272Y043725D01*
X02715D01*
X02725Y043775D02*
Y043875D01*
X02385Y043375D02*
X0238Y043325D01*
Y043225D01*
X02385Y043175D01*
X02405D01*
X0241Y043225D01*
Y043325D01*
X02405Y043375D01*
X0241Y043475D02*
Y043575D01*
Y043525D01*
X0238D01*
X02385Y043475D01*
X0238Y043725D02*
Y043925D01*
X02385D01*
X02405Y043725D01*
X0241D01*
X0251Y031825D02*
X0248D01*
Y031975D01*
X02485Y032025D01*
X02495D01*
X025Y031975D01*
Y031825D01*
Y031925D02*
X0251Y032025D01*
Y032125D02*
Y032225D01*
Y032175D01*
X0248D01*
X02485Y032125D01*
X0248Y032575D02*
Y032375D01*
X02495D01*
X0249Y032475D01*
Y032525D01*
X02495Y032575D01*
X02505D01*
X0251Y032525D01*
Y032425D01*
X02505Y032375D01*
X04965Y0357D02*
Y03545D01*
X0497Y0354D01*
X0498D01*
X04985Y03545D01*
Y0357D01*
X0501Y0354D02*
Y0357D01*
X04995Y03555D01*
X05015D01*
X0414Y0359D02*
Y03565D01*
X04145Y0356D01*
X04155D01*
X0416Y03565D01*
Y0359D01*
X0417Y03585D02*
X04175Y0359D01*
X04185D01*
X0419Y03585D01*
Y0358D01*
X04185Y03575D01*
X0418D01*
X04185D01*
X0419Y0357D01*
Y03565D01*
X04185Y0356D01*
X04175D01*
X0417Y03565D01*
X03785Y0371D02*
Y03685D01*
X0379Y0368D01*
X038D01*
X03805Y03685D01*
Y0371D01*
X03835Y0368D02*
X03815D01*
X03835Y037D01*
Y03705D01*
X0383Y0371D01*
X0382D01*
X03815Y03705D01*
X03465Y0362D02*
Y03595D01*
X0347Y0359D01*
X0348D01*
X03485Y03595D01*
Y0362D01*
X03495Y0359D02*
X03505D01*
X035D01*
Y0362D01*
X03495Y03615D01*
X0231Y0275D02*
X02305Y02755D01*
X02295D01*
X0229Y0275D01*
Y02745D01*
X02295Y0274D01*
X02305D01*
X0231Y02735D01*
Y0273D01*
X02305Y02725D01*
X02295D01*
X0229Y0273D01*
X0234Y02755D02*
X0232D01*
Y02725D01*
X0234D01*
X0232Y0274D02*
X0233D01*
X0235Y02725D02*
Y02755D01*
X0237Y02725D01*
Y02755D01*
X024Y0275D02*
X02395Y02755D01*
X02385D01*
X0238Y0275D01*
Y02745D01*
X02385Y0274D01*
X02395D01*
X024Y02735D01*
Y0273D01*
X02395Y02725D01*
X02385D01*
X0238Y0273D01*
X0241Y0274D02*
X0243D01*
X0244Y02725D02*
X0245D01*
X02445D01*
Y02755D01*
X0244Y0275D01*
X0318Y03595D02*
Y03625D01*
X03195D01*
X032Y0362D01*
Y0361D01*
X03195Y03605D01*
X0318D01*
X0319D02*
X032Y03595D01*
X0321D02*
X03225D01*
X0323Y036D01*
X03225Y03605D01*
X03215D01*
X0321Y0361D01*
X03215Y03615D01*
X0323D01*
X03245Y0362D02*
Y03615D01*
X0324D01*
X0325D01*
X03245D01*
Y036D01*
X0325Y03595D01*
X03265Y03625D02*
Y03595D01*
X0328D01*
X03285Y036D01*
Y03605D01*
X0328Y0361D01*
X03265D01*
X0328D01*
X03285Y03615D01*
Y0362D01*
X0328Y03625D01*
X03265D01*
X033Y0362D02*
Y03615D01*
X03295D01*
X03305D01*
X033D01*
Y036D01*
X03305Y03595D01*
X0332D02*
Y03615D01*
X03335D01*
X0334Y0361D01*
Y03595D01*
X045625Y02635D02*
Y02665D01*
X045775D01*
X045825Y0266D01*
Y0265D01*
X045775Y02645D01*
X045625D01*
X045725D02*
X045825Y02635D01*
X045925D02*
X046025D01*
X045975D01*
Y02665D01*
X045925Y0266D01*
X046325Y02635D02*
Y02665D01*
X046175Y0265D01*
X046375D01*
X0268Y046975D02*
X0265D01*
Y047125D01*
X02655Y047175D01*
X02665D01*
X0267Y047125D01*
Y046975D01*
Y047075D02*
X0268Y047175D01*
Y047275D02*
Y047375D01*
Y047325D01*
X0265D01*
X02655Y047275D01*
Y047525D02*
X0265Y047575D01*
Y047675D01*
X02655Y047725D01*
X0266D01*
X02665Y047675D01*
Y047625D01*
Y047675D01*
X0267Y047725D01*
X02675D01*
X0268Y047675D01*
Y047575D01*
X02675Y047525D01*
X026775Y04495D02*
X026475D01*
Y0451D01*
X026525Y04515D01*
X026625D01*
X026675Y0451D01*
Y04495D01*
Y04505D02*
X026775Y04515D01*
Y04525D02*
Y04535D01*
Y0453D01*
X026475D01*
X026525Y04525D01*
X026775Y0457D02*
Y0455D01*
X026575Y0457D01*
X026525D01*
X026475Y04565D01*
Y04555D01*
X026525Y0455D01*
X037625Y02945D02*
Y02975D01*
X037775D01*
X037825Y0297D01*
Y0296D01*
X037775Y02955D01*
X037625D01*
X037725D02*
X037825Y02945D01*
X037925D02*
X038025D01*
X037975D01*
Y02975D01*
X037925Y0297D01*
X038175Y02945D02*
X038275D01*
X038225D01*
Y02975D01*
X038175Y0297D01*
X045225Y037D02*
Y0373D01*
X045375D01*
X045425Y03725D01*
Y03715D01*
X045375Y0371D01*
X045225D01*
X045325D02*
X045425Y037D01*
X045525D02*
X045625D01*
X045575D01*
Y0373D01*
X045525Y03725D01*
X045775D02*
X045825Y0373D01*
X045925D01*
X045975Y03725D01*
Y03705D01*
X045925Y037D01*
X045825D01*
X045775Y03705D01*
Y03725D01*
X0405Y03155D02*
X0402D01*
Y0317D01*
X04025Y03175D01*
X04035D01*
X0404Y0317D01*
Y03155D01*
Y03165D02*
X0405Y03175D01*
X04045Y03185D02*
X0405Y0319D01*
Y032D01*
X04045Y03205D01*
X04025D01*
X0402Y032D01*
Y0319D01*
X04025Y03185D01*
X0403D01*
X04035Y0319D01*
Y03205D01*
X03277Y045252D02*
X03247D01*
Y045402D01*
X03252Y045452D01*
X03262D01*
X03267Y045402D01*
Y045252D01*
Y045352D02*
X03277Y045452D01*
X03252Y045552D02*
X03247Y045602D01*
Y045702D01*
X03252Y045752D01*
X03257D01*
X03262Y045702D01*
X03267Y045752D01*
X03272D01*
X03277Y045702D01*
Y045602D01*
X03272Y045552D01*
X03267D01*
X03262Y045602D01*
X03257Y045552D01*
X03252D01*
X03262Y045602D02*
Y045702D01*
X0264Y031825D02*
X0261D01*
Y031975D01*
X02615Y032025D01*
X02625D01*
X0263Y031975D01*
Y031825D01*
Y031925D02*
X0264Y032025D01*
X0261Y032125D02*
Y032325D01*
X02615D01*
X02635Y032125D01*
X0264D01*
X02575Y031825D02*
X02545D01*
Y031975D01*
X0255Y032025D01*
X0256D01*
X02565Y031975D01*
Y031825D01*
Y031925D02*
X02575Y032025D01*
X02545Y032325D02*
X0255Y032225D01*
X0256Y032125D01*
X0257D01*
X02575Y032175D01*
Y032275D01*
X0257Y032325D01*
X02565D01*
X0256Y032275D01*
Y032125D01*
X039Y03695D02*
Y03725D01*
X03915D01*
X0392Y0372D01*
Y0371D01*
X03915Y03705D01*
X039D01*
X0391D02*
X0392Y03695D01*
X0395Y03725D02*
X0393D01*
Y0371D01*
X0394Y03715D01*
X03945D01*
X0395Y0371D01*
Y037D01*
X03945Y03695D01*
X03935D01*
X0393Y037D01*
X0384Y03155D02*
X0381D01*
Y0317D01*
X03815Y03175D01*
X03825D01*
X0383Y0317D01*
Y03155D01*
Y03165D02*
X0384Y03175D01*
Y032D02*
X0381D01*
X03825Y03185D01*
Y03205D01*
X0265Y0334D02*
Y0337D01*
X02665D01*
X0267Y03365D01*
Y03355D01*
X02665Y0335D01*
X0265D01*
X0266D02*
X0267Y0334D01*
X0268Y03365D02*
X02685Y0337D01*
X02695D01*
X027Y03365D01*
Y0336D01*
X02695Y03355D01*
X0269D01*
X02695D01*
X027Y0335D01*
Y03345D01*
X02695Y0334D01*
X02685D01*
X0268Y03345D01*
X0363Y0316D02*
X036D01*
Y03175D01*
X03605Y0318D01*
X03615D01*
X0362Y03175D01*
Y0316D01*
Y0317D02*
X0363Y0318D01*
Y0319D02*
Y032D01*
Y03195D01*
X036D01*
X03605Y0319D01*
X04555Y0383D02*
Y0385D01*
X0455Y03855D01*
X0454D01*
X04535Y0385D01*
Y0383D01*
X0454Y03825D01*
X0455D01*
X04545Y03835D02*
X04555Y03825D01*
X0455D02*
X04555Y0383D01*
X04565Y0385D02*
X0457Y03855D01*
X0458D01*
X04585Y0385D01*
Y03845D01*
X0458Y0384D01*
X04575D01*
X0458D01*
X04585Y03835D01*
Y0383D01*
X0458Y03825D01*
X0457D01*
X04565Y0383D01*
X03915Y03845D02*
Y03865D01*
X0391Y0387D01*
X039D01*
X03895Y03865D01*
Y03845D01*
X039Y0384D01*
X0391D01*
X03905Y0385D02*
X03915Y0384D01*
X0391D02*
X03915Y03845D01*
X03945Y0384D02*
X03925D01*
X03945Y0386D01*
Y03865D01*
X0394Y0387D01*
X0393D01*
X03925Y03865D01*
X0328Y03835D02*
Y03855D01*
X03275Y0386D01*
X03265D01*
X0326Y03855D01*
Y03835D01*
X03265Y0383D01*
X03275D01*
X0327Y0384D02*
X0328Y0383D01*
X03275D02*
X0328Y03835D01*
X0329Y0383D02*
X033D01*
X03295D01*
Y0386D01*
X0329Y03855D01*
X04715Y0266D02*
Y0263D01*
X04735D01*
X04765D02*
X04745D01*
X04765Y0265D01*
Y02655D01*
X0476Y0266D01*
X0475D01*
X04745Y02655D01*
X04295Y03595D02*
Y03565D01*
X04315D01*
X04325D02*
X04335D01*
X0433D01*
Y03595D01*
X04325Y0359D01*
X02525Y02675D02*
Y02665D01*
Y0267D01*
X0255D01*
X02555Y02665D01*
Y0266D01*
X0255Y02655D01*
X02555Y02685D02*
X02525D01*
Y027D01*
X0253Y02705D01*
X0254D01*
X02545Y027D01*
Y02685D01*
X02555Y02715D02*
Y02725D01*
Y0272D01*
X02525D01*
X0253Y02715D01*
X0493Y02665D02*
X0492D01*
X04925D01*
Y0264D01*
X0492Y02635D01*
X04915D01*
X0491Y0264D01*
X0494Y02635D02*
Y02655D01*
X0495Y02665D01*
X0496Y02655D01*
Y02635D01*
Y0265D01*
X0494D01*
X0499Y0266D02*
X04985Y02665D01*
X04975D01*
X0497Y0266D01*
Y0264D01*
X04975Y02635D01*
X04985D01*
X0499Y0264D01*
X05Y02665D02*
Y02635D01*
Y02645D01*
X0502Y02665D01*
X05005Y0265D01*
X0502Y02635D01*
X0506Y02665D02*
Y02635D01*
X05075D01*
X0508Y0264D01*
Y0266D01*
X05075Y02665D01*
X0506D01*
X0511Y0266D02*
X05105Y02665D01*
X05095D01*
X0509Y0266D01*
Y0264D01*
X05095Y02635D01*
X05105D01*
X0511Y0264D01*
X0512Y02635D02*
X0513D01*
X05125D01*
Y02665D01*
X0512Y0266D01*
X045413Y03555D02*
X045713D01*
Y0357D01*
X045663Y03575D01*
X045463D01*
X045413Y0357D01*
Y03555D01*
X045713Y036D02*
X045413D01*
X045563Y03585D01*
Y03605D01*
X05095Y03865D02*
Y03835D01*
X0511D01*
X05115Y0384D01*
Y0386D01*
X0511Y03865D01*
X05095D01*
X05125Y0386D02*
X0513Y03865D01*
X0514D01*
X05145Y0386D01*
Y03855D01*
X0514Y0385D01*
X05135D01*
X0514D01*
X05145Y03845D01*
Y0384D01*
X0514Y03835D01*
X0513D01*
X05125Y0384D01*
X04415Y03855D02*
Y03825D01*
X0443D01*
X04435Y0383D01*
Y0385D01*
X0443Y03855D01*
X04415D01*
X04465Y03825D02*
X04445D01*
X04465Y03845D01*
Y0385D01*
X0446Y03855D01*
X0445D01*
X04445Y0385D01*
X03785Y03865D02*
Y03835D01*
X038D01*
X03805Y0384D01*
Y0386D01*
X038Y03865D01*
X03785D01*
X03815Y03835D02*
X03825D01*
X0382D01*
Y03865D01*
X03815Y0386D01*
X025631Y033699D02*
X025581Y033749D01*
X025481D01*
X025431Y033699D01*
Y033499D01*
X025481Y033449D01*
X025581D01*
X025631Y033499D01*
X025731Y033449D02*
X025831D01*
X025781D01*
Y033749D01*
X025731Y033699D01*
X026181Y033749D02*
X026081Y033699D01*
X025981Y033599D01*
Y033499D01*
X026031Y033449D01*
X026131D01*
X026181Y033499D01*
Y033549D01*
X026131Y033599D01*
X025981D01*
X025625Y03305D02*
X025575Y0331D01*
X025475D01*
X025425Y03305D01*
Y03285D01*
X025475Y0328D01*
X025575D01*
X025625Y03285D01*
X025725Y0328D02*
X025825D01*
X025775D01*
Y0331D01*
X025725Y03305D01*
X026175Y0331D02*
X025975D01*
Y03295D01*
X026075Y033D01*
X026125D01*
X026175Y03295D01*
Y03285D01*
X026125Y0328D01*
X026025D01*
X025975Y03285D01*
X02895Y029925D02*
X0289Y029875D01*
Y029775D01*
X02895Y029725D01*
X02915D01*
X0292Y029775D01*
Y029875D01*
X02915Y029925D01*
X0292Y030025D02*
Y030125D01*
Y030075D01*
X0289D01*
X02895Y030025D01*
X0292Y030425D02*
X0289D01*
X02905Y030275D01*
Y030475D01*
X03465Y031375D02*
X0346Y031325D01*
Y031225D01*
X03465Y031175D01*
X03485D01*
X0349Y031225D01*
Y031325D01*
X03485Y031375D01*
X0349Y031475D02*
Y031575D01*
Y031525D01*
X0346D01*
X03465Y031475D01*
Y031725D02*
X0346Y031775D01*
Y031875D01*
X03465Y031925D01*
X0347D01*
X03475Y031875D01*
Y031825D01*
Y031875D01*
X0348Y031925D01*
X03485D01*
X0349Y031875D01*
Y031775D01*
X03485Y031725D01*
X0339Y031375D02*
X03385Y031325D01*
Y031225D01*
X0339Y031175D01*
X0341D01*
X03415Y031225D01*
Y031325D01*
X0341Y031375D01*
X03415Y031475D02*
Y031575D01*
Y031525D01*
X03385D01*
X0339Y031475D01*
X03415Y031925D02*
Y031725D01*
X03395Y031925D01*
X0339D01*
X03385Y031875D01*
Y031775D01*
X0339Y031725D01*
X04175Y029575D02*
X0417Y029525D01*
Y029425D01*
X04175Y029375D01*
X04195D01*
X042Y029425D01*
Y029525D01*
X04195Y029575D01*
X042Y029675D02*
Y029775D01*
Y029725D01*
X0417D01*
X04175Y029675D01*
X042Y029925D02*
Y030025D01*
Y029975D01*
X0417D01*
X04175Y029925D01*
X04475Y028375D02*
X0447Y028325D01*
Y028225D01*
X04475Y028175D01*
X04495D01*
X045Y028225D01*
Y028325D01*
X04495Y028375D01*
X045Y028475D02*
Y028575D01*
Y028525D01*
X0447D01*
X04475Y028475D01*
Y028725D02*
X0447Y028775D01*
Y028875D01*
X04475Y028925D01*
X04495D01*
X045Y028875D01*
Y028775D01*
X04495Y028725D01*
X04475D01*
X03935Y02765D02*
X0393Y0276D01*
Y0275D01*
X03935Y02745D01*
X03955D01*
X0396Y0275D01*
Y0276D01*
X03955Y02765D01*
Y02775D02*
X0396Y0278D01*
Y0279D01*
X03955Y02795D01*
X03935D01*
X0393Y0279D01*
Y0278D01*
X03935Y02775D01*
X0394D01*
X03945Y0278D01*
Y02795D01*
X03495Y0277D02*
X0349Y02765D01*
Y02755D01*
X03495Y0275D01*
X03515D01*
X0352Y02755D01*
Y02765D01*
X03515Y0277D01*
X03495Y0278D02*
X0349Y02785D01*
Y02795D01*
X03495Y028D01*
X035D01*
X03505Y02795D01*
X0351Y028D01*
X03515D01*
X0352Y02795D01*
Y02785D01*
X03515Y0278D01*
X0351D01*
X03505Y02785D01*
X035Y0278D01*
X03495D01*
X03505Y02785D02*
Y02795D01*
X02995Y04845D02*
X0299Y0485D01*
X0298D01*
X02975Y04845D01*
Y04825D01*
X0298Y0482D01*
X0299D01*
X02995Y04825D01*
X03005Y0485D02*
X03025D01*
Y04845D01*
X03005Y04825D01*
Y0482D01*
X03045Y02765D02*
X0304Y0276D01*
Y0275D01*
X03045Y02745D01*
X03065D01*
X0307Y0275D01*
Y0276D01*
X03065Y02765D01*
X0304Y02795D02*
X03045Y02785D01*
X03055Y02775D01*
X03065D01*
X0307Y0278D01*
Y0279D01*
X03065Y02795D01*
X0306D01*
X03055Y0279D01*
Y02775D01*
X0259Y0277D02*
X02585Y02765D01*
Y02755D01*
X0259Y0275D01*
X0261D01*
X02615Y02755D01*
Y02765D01*
X0261Y0277D01*
X02585Y028D02*
Y0278D01*
X026D01*
X02595Y0279D01*
Y02795D01*
X026Y028D01*
X0261D01*
X02615Y02795D01*
Y02785D01*
X0261Y0278D01*
X0501Y03755D02*
X05005Y0376D01*
X04995D01*
X0499Y03755D01*
Y03735D01*
X04995Y0373D01*
X05005D01*
X0501Y03735D01*
X05035Y0373D02*
Y0376D01*
X0502Y03745D01*
X0504D01*
X0268Y032025D02*
X02675Y031975D01*
Y031875D01*
X0268Y031825D01*
X027D01*
X02705Y031875D01*
Y031975D01*
X027Y032025D01*
X0268Y032125D02*
X02675Y032175D01*
Y032275D01*
X0268Y032325D01*
X02685D01*
X0269Y032275D01*
Y032225D01*
Y032275D01*
X02695Y032325D01*
X027D01*
X02705Y032275D01*
Y032175D01*
X027Y032125D01*
X04355Y03755D02*
X0435Y0376D01*
X0434D01*
X04335Y03755D01*
Y03735D01*
X0434Y0373D01*
X0435D01*
X04355Y03735D01*
X04385Y0373D02*
X04365D01*
X04385Y0375D01*
Y03755D01*
X0438Y0376D01*
X0437D01*
X04365Y03755D01*
X0372D02*
X03715Y0376D01*
X03705D01*
X037Y03755D01*
Y03735D01*
X03705Y0373D01*
X03715D01*
X0372Y03735D01*
X0373Y0373D02*
X0374D01*
X03735D01*
Y0376D01*
X0373Y03755D01*
X04105Y02845D02*
Y02815D01*
X0412D01*
X04125Y0282D01*
Y02825D01*
X0412Y0283D01*
X04105D01*
X0412D01*
X04125Y02835D01*
Y0284D01*
X0412Y02845D01*
X04105D01*
X04135D02*
X04155D01*
X04145D01*
Y02815D01*
X0418D02*
Y02845D01*
X04165Y0283D01*
X04185D01*
X03665Y02845D02*
Y02815D01*
X0368D01*
X03685Y0282D01*
Y02825D01*
X0368Y0283D01*
X03665D01*
X0368D01*
X03685Y02835D01*
Y0284D01*
X0368Y02845D01*
X03665D01*
X03695D02*
X03715D01*
X03705D01*
Y02815D01*
X03725Y0284D02*
X0373Y02845D01*
X0374D01*
X03745Y0284D01*
Y02835D01*
X0374Y0283D01*
X03735D01*
X0374D01*
X03745Y02825D01*
Y0282D01*
X0374Y02815D01*
X0373D01*
X03725Y0282D01*
X03225Y02845D02*
Y02815D01*
X0324D01*
X03245Y0282D01*
Y02825D01*
X0324Y0283D01*
X03225D01*
X0324D01*
X03245Y02835D01*
Y0284D01*
X0324Y02845D01*
X03225D01*
X03255D02*
X03275D01*
X03265D01*
Y02815D01*
X03305D02*
X03285D01*
X03305Y02835D01*
Y0284D01*
X033Y02845D01*
X0329D01*
X03285Y0284D01*
X0281Y0285D02*
Y0282D01*
X02825D01*
X0283Y02825D01*
Y0283D01*
X02825Y02835D01*
X0281D01*
X02825D01*
X0283Y0284D01*
Y02845D01*
X02825Y0285D01*
X0281D01*
X0284D02*
X0286D01*
X0285D01*
Y0282D01*
X0287D02*
X0288D01*
X02875D01*
Y0285D01*
X0287Y02845D01*
X03165Y0342D02*
Y0339D01*
X0318D01*
X03185Y03395D01*
Y034D01*
X0318Y03405D01*
X03165D01*
X0318D01*
X03185Y0341D01*
Y03415D01*
X0318Y0342D01*
X03165D01*
X032Y0339D02*
X0321D01*
X03215Y03395D01*
Y03405D01*
X0321Y0341D01*
X032D01*
X03195Y03405D01*
Y03395D01*
X032Y0339D01*
X0323D02*
X0324D01*
X03245Y03395D01*
Y03405D01*
X0324Y0341D01*
X0323D01*
X03225Y03405D01*
Y03395D01*
X0323Y0339D01*
X0326Y03415D02*
Y0341D01*
X03255D01*
X03265D01*
X0326D01*
Y03395D01*
X03265Y0339D01*
X0328Y0342D02*
Y0339D01*
X03295D01*
X033Y03395D01*
Y034D01*
X03295Y03405D01*
X0328D01*
X03295D01*
X033Y0341D01*
Y03415D01*
X03295Y0342D01*
X0328D01*
X03315Y03415D02*
Y0341D01*
X0331D01*
X0332D01*
X03315D01*
Y03395D01*
X0332Y0339D01*
X03335D02*
Y0341D01*
X0335D01*
X03355Y03405D01*
Y0339D01*
X03015Y03175D02*
Y03195D01*
X03025Y03205D01*
X03035Y03195D01*
Y03175D01*
Y0319D01*
X03015D01*
X03045Y03175D02*
Y03205D01*
X03055Y03195D01*
X03065Y03205D01*
Y03175D01*
X03095Y032D02*
X0309Y03205D01*
X0308D01*
X03075Y032D01*
Y03195D01*
X0308Y0319D01*
X0309D01*
X03095Y03185D01*
Y0318D01*
X0309Y03175D01*
X0308D01*
X03075Y0318D01*
X03105Y03175D02*
X03115D01*
X0311D01*
Y03205D01*
X03105Y032D01*
X02035Y04215D02*
X02055Y04195D01*
X02035D02*
X02055Y04215D01*
X02035Y04205D02*
X02055D01*
X02045Y04195D02*
Y04215D01*
D14*
X0289Y0268D02*
G03*
X0289Y0268I-0006J0D01*
G01*
X0422D02*
G03*
X0422Y0268I-0006J0D01*
G01*
X0378D02*
G03*
X0378Y0268I-0006J0D01*
G01*
X03335D02*
G03*
X03335Y0268I-0006J0D01*
G01*
X02478Y04283D02*
X025511D01*
X02478D02*
Y043482D01*
X02487Y04292D02*
X026467D01*
Y044242D01*
X02487D02*
X026467D01*
X02487Y04292D02*
Y044242D01*
X02955Y02555D02*
Y02805D01*
X02705D02*
X02955D01*
X02705Y02555D02*
X02955D01*
X02705D02*
Y02805D01*
X04035Y02555D02*
Y02805D01*
Y02555D02*
X04285D01*
X04035Y02805D02*
X04285D01*
Y02555D02*
Y02805D01*
X03845Y02555D02*
Y02805D01*
X03595D02*
X03845D01*
X03595Y02555D02*
X03845D01*
X03595D02*
Y02805D01*
X034Y02555D02*
Y02805D01*
X0315D02*
X034D01*
X0315Y02555D02*
X034D01*
X0315D02*
Y02805D01*
D15*
X02837Y048115D02*
G03*
X028911Y048115I00027J0D01*
G01*
X037409Y036762D02*
Y037038D01*
X03614Y037166D02*
X036573D01*
X03614Y036634D02*
X036573D01*
X03614D02*
Y037166D01*
X036927D02*
X037281D01*
X036927Y036634D02*
X037281D01*
X03736Y036713D01*
X03735Y036703D02*
X037409Y036762D01*
X037341Y037107D02*
X037409Y037038D01*
X03736Y036713D02*
Y037087D01*
X037281Y037166D02*
X03736Y037087D01*
X043894Y036712D02*
Y036988D01*
X042624Y037116D02*
X043057D01*
X042624Y036584D02*
X043057D01*
X042624D02*
Y037116D01*
X043412D02*
X043766D01*
X043412Y036584D02*
X043766D01*
X043845Y036663D01*
X043835Y036653D02*
X043894Y036712D01*
X043825Y037057D02*
X043894Y036988D01*
X043845Y036663D02*
Y037037D01*
X043766Y037116D02*
X043845Y037037D01*
X050259Y036762D02*
Y037038D01*
X04899Y037166D02*
X049423D01*
X04899Y036634D02*
X049423D01*
X04899D02*
Y037166D01*
X049777D02*
X050132D01*
X049777Y036634D02*
X050132D01*
X05021Y036713D01*
X0502Y036703D02*
X050259Y036762D01*
X050191Y037107D02*
X050259Y037038D01*
X05021Y036713D02*
Y037087D01*
X050132Y037166D02*
X05021Y037087D01*
X023403Y032265D02*
X023502Y032167D01*
X023403Y032265D02*
X023502Y032364D01*
X023403Y032265D02*
X023502Y032364D01*
X023403Y032265D02*
X023797D01*
X022714Y027738D02*
Y032462D01*
Y027738D02*
X024486D01*
Y032462D01*
X022714D02*
X024486D01*
X035609Y028876D02*
Y028977D01*
Y02867D02*
Y028772D01*
X035679Y029225D02*
Y02923D01*
X035609Y028772D02*
Y028876D01*
Y028977D02*
Y02985D01*
X037449D01*
Y02867D02*
Y02985D01*
X035609Y02867D02*
X037449D01*
X02774Y048115D02*
X02954D01*
X02774Y043965D02*
X02954D01*
X02954Y048D02*
X02954Y048115D01*
Y043965D02*
X02954Y04408D01*
X02774Y048D02*
X02774Y048115D01*
Y043965D02*
X02774Y04408D01*
X030141Y034257D02*
X030397D01*
Y035221D01*
Y040379D02*
Y041343D01*
X030141D02*
X030397D01*
X020357Y034257D02*
X022917D01*
X020357D02*
Y041343D01*
X022917D01*
D16*
X02754Y04814D02*
G03*
X02754Y04814I-00005J0D01*
G01*
D17*
X03428Y03692D02*
Y03738D01*
X03321D02*
X03428D01*
X03321Y03692D02*
Y03738D01*
Y03692D02*
X03428D01*
X03371Y03699D02*
X03379D01*
X03371Y03731D02*
X03379D01*
X035465Y03706D02*
X035545D01*
X035465Y03674D02*
X035545D01*
X034965Y03667D02*
X036035D01*
X034965D02*
Y03713D01*
X036035D01*
Y03667D02*
Y03713D01*
X04196Y03701D02*
X04204D01*
X04196Y03669D02*
X04204D01*
X04146Y03662D02*
X04253D01*
X04146D02*
Y03708D01*
X04253D01*
Y03662D02*
Y03708D01*
X04831Y03706D02*
X04839D01*
X04831Y03674D02*
X04839D01*
X04781Y03667D02*
X04888D01*
X04781D02*
Y03713D01*
X04888D01*
Y03667D02*
Y03713D01*
X04916Y03729D02*
X04924D01*
X04916Y03761D02*
X04924D01*
X04867Y03768D02*
X04974D01*
Y03722D02*
Y03768D01*
X04867Y03722D02*
X04974D01*
X04867D02*
Y03768D01*
X04671Y03731D02*
X04679D01*
X04671Y03699D02*
X04679D01*
X04621Y03692D02*
X04728D01*
X04621D02*
Y03738D01*
X04728D01*
Y03692D02*
Y03738D01*
X04251Y03724D02*
X04259D01*
X04251Y03756D02*
X04259D01*
X04202Y03763D02*
X04309D01*
Y03717D02*
Y03763D01*
X04202Y03717D02*
X04309D01*
X04202D02*
Y03763D01*
X04011Y03726D02*
X04019D01*
X04011Y03694D02*
X04019D01*
X03961Y03687D02*
X04068D01*
X03961D02*
Y03733D01*
X04068D01*
Y03687D02*
Y03733D01*
X03621Y03729D02*
X03629D01*
X03621Y03761D02*
X03629D01*
X03572Y03768D02*
X03679D01*
Y03722D02*
Y03768D01*
X03572Y03722D02*
X03679D01*
X03572D02*
Y03768D01*
X0469Y02685D02*
Y0269D01*
Y02685D02*
X0478D01*
Y0269D01*
X0469Y0275D02*
Y02755D01*
X0478D01*
Y0275D02*
Y02755D01*
X04653Y02697D02*
Y02743D01*
X04546D02*
X04653D01*
X04546Y02697D02*
Y02743D01*
Y02697D02*
X04653D01*
X04596Y02704D02*
X04604D01*
X04596Y02736D02*
X04604D01*
X03996Y03171D02*
Y03179D01*
X03964Y03171D02*
Y03179D01*
X03957Y03122D02*
Y03229D01*
X04003D01*
Y03122D02*
Y03229D01*
X03957Y03122D02*
X04003D01*
X03786Y031715D02*
Y031795D01*
X03754Y031715D02*
Y031795D01*
X03747Y031225D02*
Y032295D01*
X03793D01*
Y031225D02*
Y032295D01*
X03747Y031225D02*
X03793D01*
X03576Y031715D02*
Y031795D01*
X03544Y031715D02*
Y031795D01*
X03537Y031225D02*
Y032295D01*
X03583D01*
Y031225D02*
Y032295D01*
X03537Y031225D02*
X03583D01*
X02684Y03111D02*
Y03119D01*
X02716Y03111D02*
Y03119D01*
X02723Y03061D02*
Y03168D01*
X02677Y03061D02*
X02723D01*
X02677D02*
Y03168D01*
X02723D01*
X02646Y031115D02*
Y031195D01*
X02614Y031115D02*
Y031195D01*
X02607Y030625D02*
Y031695D01*
X02653D01*
Y030625D02*
Y031695D01*
X02607Y030625D02*
X02653D01*
X02537Y03062D02*
X02583D01*
Y03169D01*
X02537D02*
X02583D01*
X02537Y03062D02*
Y03169D01*
X02544Y03111D02*
Y03119D01*
X02576Y03111D02*
Y03119D01*
X02472Y03062D02*
X02518D01*
Y03169D01*
X02472D02*
X02518D01*
X02472Y03062D02*
Y03169D01*
X02479Y03111D02*
Y03119D01*
X02511Y03111D02*
Y03119D01*
X02346Y03376D02*
X02354D01*
X02346Y03344D02*
X02354D01*
X02296Y03337D02*
X02403D01*
X02296D02*
Y03383D01*
X02403D01*
Y03337D02*
Y03383D01*
X02346Y03316D02*
X02354D01*
X02346Y03284D02*
X02354D01*
X02296Y03277D02*
X02403D01*
X02296D02*
Y03323D01*
X02403D01*
Y03277D02*
Y03323D01*
X02417Y03277D02*
Y03323D01*
Y03277D02*
X02524D01*
Y03323D01*
X02417D02*
X02524D01*
X02466Y03316D02*
X02474D01*
X02466Y03284D02*
X02474D01*
X02577Y02733D02*
X02623D01*
X02577Y02626D02*
Y02733D01*
Y02626D02*
X02623D01*
Y02733D01*
X02616Y02676D02*
Y02684D01*
X02584Y02676D02*
Y02684D01*
X03044Y02676D02*
Y02684D01*
X03076Y02676D02*
Y02684D01*
X03083Y02626D02*
Y02733D01*
X03037Y02626D02*
X03083D01*
X03037D02*
Y02733D01*
X03083D01*
X03494Y02676D02*
Y02684D01*
X03526Y02676D02*
Y02684D01*
X03533Y02626D02*
Y02733D01*
X03487Y02626D02*
X03533D01*
X03487D02*
Y02733D01*
X03533D01*
X03927D02*
X03973D01*
X03927Y02626D02*
Y02733D01*
Y02626D02*
X03973D01*
Y02733D01*
X03966Y02676D02*
Y02684D01*
X03934Y02676D02*
Y02684D01*
X03452Y031035D02*
X03498D01*
X03452Y029965D02*
Y031035D01*
Y029965D02*
X03498D01*
Y031035D01*
X03491Y030465D02*
Y030545D01*
X03459Y030465D02*
Y030545D01*
X03382Y031035D02*
X03428D01*
X03382Y029965D02*
Y031035D01*
Y029965D02*
X03428D01*
Y031035D01*
X03421Y030465D02*
Y030545D01*
X03389Y030465D02*
Y030545D01*
X02942Y03058D02*
X02988D01*
X02942Y02951D02*
Y03058D01*
Y02951D02*
X02988D01*
Y03058D01*
X02981Y03001D02*
Y03009D01*
X02949Y03001D02*
Y03009D01*
X03171Y04114D02*
X03179D01*
X03171Y04146D02*
X03179D01*
X03122Y04153D02*
X03229D01*
Y04107D02*
Y04153D01*
X03122Y04107D02*
X03229D01*
X03122D02*
Y04153D01*
X03171Y04324D02*
X03179D01*
X03171Y04356D02*
X03179D01*
X03122Y04363D02*
X03229D01*
Y04317D02*
Y04363D01*
X03122Y04317D02*
X03229D01*
X03122D02*
Y04363D01*
X03176Y04566D02*
X03184D01*
X03176Y04534D02*
X03184D01*
X03126Y04527D02*
X03233D01*
X03126D02*
Y04573D01*
X03233D01*
Y04527D02*
Y04573D01*
X02861Y04866D02*
X02869D01*
X02861Y04834D02*
X02869D01*
X02811Y04827D02*
X02918D01*
X02811D02*
Y04873D01*
X02918D01*
Y04827D02*
Y04873D01*
X02592Y04687D02*
X02638D01*
Y04794D01*
X02592D02*
X02638D01*
X02592Y04687D02*
Y04794D01*
X02599Y04736D02*
Y04744D01*
X02631Y04736D02*
Y04744D01*
X02592Y04588D02*
X02638D01*
X02592Y04481D02*
Y04588D01*
Y04481D02*
X02638D01*
Y04588D01*
X02631Y04531D02*
Y04539D01*
X02599Y04531D02*
Y04539D01*
X02976Y04319D02*
X02984D01*
X02976Y04351D02*
X02984D01*
X02927Y04358D02*
X03034D01*
Y04312D02*
Y04358D01*
X02927Y04312D02*
X03034D01*
X02927D02*
Y04358D01*
Y04227D02*
Y04273D01*
Y04227D02*
X03034D01*
Y04273D01*
X02927D02*
X03034D01*
X02976Y04266D02*
X02984D01*
X02976Y04234D02*
X02984D01*
X0288Y04365D02*
Y0437D01*
X0279D02*
X0288D01*
X0279Y04365D02*
Y0437D01*
X0288Y043D02*
Y04305D01*
X0279Y043D02*
X0288D01*
X0279D02*
Y04305D01*
X0288Y0428D02*
Y04285D01*
X0279D02*
X0288D01*
X0279Y0428D02*
Y04285D01*
X0288Y04215D02*
Y0422D01*
X0279Y04215D02*
X0288D01*
X0279D02*
Y0422D01*
D18*
X046162Y038892D02*
X046562D01*
X046162Y037892D02*
Y038892D01*
X047062D02*
X047462D01*
Y037892D02*
Y038892D01*
X0396Y0389D02*
X04D01*
X0396Y0379D02*
Y0389D01*
X0405D02*
X0409D01*
Y0379D02*
Y0389D01*
X0332Y038892D02*
X0336D01*
X0332Y037892D02*
Y038892D01*
X0341D02*
X0345D01*
Y037892D02*
Y038892D01*
X0313Y0417D02*
X0323D01*
Y0421D01*
X0313Y043D02*
X0323D01*
Y0426D02*
Y043D01*
X0313Y0438D02*
X0323D01*
Y0442D01*
X0313Y0451D02*
X0323D01*
Y0447D02*
Y0451D01*
D19*
X0326Y03305D02*
D03*
Y035D02*
D03*
M02*
