G04*
G04 #@! TF.GenerationSoftware,Altium Limited,Altium Designer,21.3.2 (30)*
G04*
G04 Layer_Color=8421504*
%FSTAX24Y24*%
%MOIN*%
G70*
G04*
G04 #@! TF.SameCoordinates,4D29D3D3-CB23-4B61-9135-448C7089281F*
G04*
G04*
G04 #@! TF.FilePolarity,Positive*
G04*
G01*
G75*
%ADD20R,0.0394X0.0374*%
G04:AMPARAMS|DCode=21|XSize=31.5mil|YSize=31.5mil|CornerRadius=3.9mil|HoleSize=0mil|Usage=FLASHONLY|Rotation=0.000|XOffset=0mil|YOffset=0mil|HoleType=Round|Shape=RoundedRectangle|*
%AMROUNDEDRECTD21*
21,1,0.0315,0.0236,0,0,0.0*
21,1,0.0236,0.0315,0,0,0.0*
1,1,0.0079,0.0118,-0.0118*
1,1,0.0079,-0.0118,-0.0118*
1,1,0.0079,-0.0118,0.0118*
1,1,0.0079,0.0118,0.0118*
%
%ADD21ROUNDEDRECTD21*%
%ADD22R,0.0453X0.0118*%
%ADD23R,0.0453X0.0236*%
%ADD24R,0.0551X0.0472*%
%ADD25R,0.0984X0.0669*%
%ADD26R,0.0335X0.0472*%
%ADD27O,0.0630X0.0886*%
G04:AMPARAMS|DCode=28|XSize=287.4mil|YSize=157.5mil|CornerRadius=0mil|HoleSize=0mil|Usage=FLASHONLY|Rotation=180.000|XOffset=0mil|YOffset=0mil|HoleType=Round|Shape=Octagon|*
%AMOCTAGOND28*
4,1,8,-0.1437,0.0394,-0.1437,-0.0394,-0.1043,-0.0787,0.1043,-0.0787,0.1437,-0.0394,0.1437,0.0394,0.1043,0.0787,-0.1043,0.0787,-0.1437,0.0394,0.0*
%
%ADD28OCTAGOND28*%

%ADD29R,0.2756X0.3937*%
%ADD30R,0.1200X0.0394*%
%ADD31R,0.0500X0.0550*%
%ADD32R,0.0374X0.0394*%
%ADD33R,0.0600X0.0500*%
%ADD34R,0.0457X0.0394*%
%ADD35R,0.0200X0.0394*%
%ADD36R,0.0945X0.1299*%
%ADD37R,0.0945X0.0394*%
%ADD38R,0.0472X0.0315*%
%ADD39R,0.0472X0.0335*%
%ADD40R,0.0984X0.0250*%
%ADD41O,0.0984X0.0250*%
%ADD42R,0.0335X0.0276*%
%ADD43R,0.0354X0.0787*%
%ADD44R,0.0787X0.0354*%
%ADD45R,0.0524X0.0524*%
G36*
X025738Y046304D02*
X025285D01*
Y046423D01*
X025738D01*
Y046304D01*
D02*
G37*
G36*
X025738Y046108D02*
X025285D01*
Y046226D01*
X025738D01*
Y046108D01*
D02*
G37*
G36*
X025738Y045911D02*
X025286D01*
Y046029D01*
X025738D01*
Y045911D01*
D02*
G37*
G36*
X025738Y045714D02*
X025285D01*
Y045832D01*
X025738D01*
Y045714D01*
D02*
G37*
G36*
Y045399D02*
X025285D01*
Y045635D01*
X025738D01*
Y045399D01*
D02*
G37*
G36*
Y045084D02*
X025285D01*
Y04532D01*
X025738D01*
Y045084D01*
D02*
G37*
G36*
X025547Y044962D02*
X025614Y044895D01*
X02565Y044808D01*
Y044714D01*
X025614Y044627D01*
X025547Y044561D01*
X02546Y044525D01*
X024933D01*
X024846Y044561D01*
X02478Y044627D01*
X024744Y044714D01*
Y044808D01*
X02478Y044895D01*
X024846Y044962D01*
X024933Y044998D01*
X02546D01*
X025547Y044962D01*
D02*
G37*
G36*
X023854D02*
X023921Y044895D01*
X023957Y044808D01*
Y044714D01*
X023921Y044627D01*
X023854Y044561D01*
X023767Y044525D01*
X023359D01*
X023272Y044561D01*
X023205Y044627D01*
X023169Y044714D01*
Y044808D01*
X023205Y044895D01*
X023272Y044962D01*
X023359Y044998D01*
X023767D01*
X023854Y044962D01*
D02*
G37*
G36*
X02372Y048399D02*
X023767D01*
X023854Y048363D01*
X023921Y048297D01*
X023957Y04821D01*
Y048116D01*
X023921Y048029D01*
X023854Y047963D01*
X023767Y047927D01*
X02372D01*
D01*
X023406D01*
X023359D01*
X023272Y047963D01*
X023205Y048029D01*
X023169Y048116D01*
Y04821D01*
X023205Y048297D01*
X023272Y048363D01*
X023359Y048399D01*
X023406D01*
D01*
X02372D01*
D02*
G37*
G36*
X025413D02*
X02546D01*
X025547Y048363D01*
X025614Y048297D01*
X02565Y04821D01*
Y048116D01*
X025614Y048029D01*
X025547Y047963D01*
X02546Y047927D01*
X025413D01*
D01*
X02498D01*
X024933D01*
X024846Y047963D01*
X02478Y048029D01*
X024744Y048116D01*
Y04821D01*
X02478Y048297D01*
X024846Y048363D01*
X024933Y048399D01*
X02498D01*
D01*
X025413D01*
D02*
G37*
G36*
X025737Y047525D02*
Y047289D01*
X025284D01*
Y047525D01*
X025737D01*
D02*
G37*
G36*
Y04784D02*
Y047604D01*
X025284D01*
Y04784D01*
X025737D01*
D02*
G37*
G36*
X025737Y046816D02*
Y046698D01*
X025285D01*
Y046816D01*
X025737D01*
D02*
G37*
G36*
X025738Y04662D02*
Y046501D01*
X025285D01*
Y04662D01*
X025738D01*
D02*
G37*
G36*
X025738Y04721D02*
Y047092D01*
X025286D01*
Y04721D01*
X025738D01*
D02*
G37*
G36*
X025738Y047013D02*
Y046895D01*
X025285D01*
Y047013D01*
X025738D01*
D02*
G37*
D20*
X034045Y03715D02*
D03*
X033455D02*
D03*
X035209Y0369D02*
D03*
X0358D02*
D03*
X041705Y03685D02*
D03*
X042295D02*
D03*
X048055Y0369D02*
D03*
X048645D02*
D03*
X049495Y03745D02*
D03*
X048905D02*
D03*
X046455Y03715D02*
D03*
X047045D02*
D03*
X042845Y0374D02*
D03*
X042255D02*
D03*
X039855Y0371D02*
D03*
X040445D02*
D03*
X036545Y03745D02*
D03*
X035955D02*
D03*
X046295Y0272D02*
D03*
X045705D02*
D03*
X023205Y0336D02*
D03*
X023795D02*
D03*
X023205Y033D02*
D03*
X023795D02*
D03*
X024405D02*
D03*
X024995D02*
D03*
X032045Y0413D02*
D03*
X031455D02*
D03*
X032045Y0434D02*
D03*
X031455D02*
D03*
X031505Y0455D02*
D03*
X032095D02*
D03*
X028355Y0485D02*
D03*
X028945D02*
D03*
X030095Y04335D02*
D03*
X029505D02*
D03*
Y0425D02*
D03*
X030095D02*
D03*
D21*
X037085Y0369D02*
D03*
X036415D02*
D03*
X043569Y03685D02*
D03*
X0429D02*
D03*
X049935Y0369D02*
D03*
X049265D02*
D03*
D22*
X025512Y047151D02*
D03*
X025512Y046954D02*
D03*
X025511Y046758D02*
D03*
X025512Y046561D02*
D03*
X025511Y046364D02*
D03*
X025512Y046167D02*
D03*
Y04597D02*
D03*
Y045773D02*
D03*
D23*
X02551Y047722D02*
D03*
Y047407D02*
D03*
X025512Y045517D02*
D03*
Y045202D02*
D03*
D24*
X025236Y043916D02*
D03*
X026102D02*
D03*
Y043246D02*
D03*
X025236D02*
D03*
D25*
X048463Y03845D02*
D03*
X050037D02*
D03*
X041763Y0384D02*
D03*
X043337D02*
D03*
X035463Y03845D02*
D03*
X037037D02*
D03*
X046663Y03585D02*
D03*
X048237D02*
D03*
D26*
X046814Y038884D02*
D03*
X046442Y037902D02*
D03*
X0472Y0379D02*
D03*
X040252Y038892D02*
D03*
X03988Y03791D02*
D03*
X040638Y037908D02*
D03*
X033852Y038884D02*
D03*
X03348Y037902D02*
D03*
X034238Y0379D02*
D03*
D27*
X0398Y032827D02*
D03*
X0408D02*
D03*
Y036173D02*
D03*
X0398D02*
D03*
X0377Y032827D02*
D03*
X0387D02*
D03*
Y036173D02*
D03*
X0377D02*
D03*
X0356Y032827D02*
D03*
X0366D02*
D03*
Y036173D02*
D03*
X0356D02*
D03*
D28*
X0434Y032D02*
D03*
Y0345D02*
D03*
D29*
X0504Y03335D02*
D03*
D30*
X0458Y0319D02*
D03*
Y0326D02*
D03*
Y0333D02*
D03*
Y034D02*
D03*
Y0347D02*
D03*
D31*
X0478Y0272D02*
D03*
X0469D02*
D03*
X0279Y04335D02*
D03*
X0288D02*
D03*
X0279Y0425D02*
D03*
X0288D02*
D03*
D32*
X0398Y032045D02*
D03*
Y031455D02*
D03*
X0377Y03205D02*
D03*
Y031459D02*
D03*
X0356Y03205D02*
D03*
Y031459D02*
D03*
X027Y030855D02*
D03*
Y031445D02*
D03*
X0263Y03145D02*
D03*
Y030859D02*
D03*
X0256Y030855D02*
D03*
Y031445D02*
D03*
X02495Y030855D02*
D03*
Y031445D02*
D03*
X026Y027095D02*
D03*
Y026505D02*
D03*
X0306D02*
D03*
Y027095D02*
D03*
X0351Y026505D02*
D03*
Y027095D02*
D03*
X0395D02*
D03*
Y026505D02*
D03*
X03475Y0308D02*
D03*
Y030209D02*
D03*
X03405Y0308D02*
D03*
Y030209D02*
D03*
X02965Y030345D02*
D03*
Y029755D02*
D03*
X02615Y047105D02*
D03*
Y047695D02*
D03*
Y045645D02*
D03*
Y045055D02*
D03*
D33*
X02995Y0259D02*
D03*
Y0277D02*
D03*
X02665Y0259D02*
D03*
Y0277D02*
D03*
X03995D02*
D03*
Y0259D02*
D03*
X04325Y0277D02*
D03*
Y0259D02*
D03*
X03885D02*
D03*
Y0277D02*
D03*
X03555Y0259D02*
D03*
Y0277D02*
D03*
X0344Y0259D02*
D03*
Y0277D02*
D03*
X0311Y0259D02*
D03*
Y0277D02*
D03*
D34*
X035919Y02957D02*
D03*
X037139D02*
D03*
X035919Y02895D02*
D03*
X037139D02*
D03*
D35*
X036358Y029571D02*
D03*
X0367D02*
D03*
X036358Y028949D02*
D03*
X0367Y02895D02*
D03*
D36*
X030708Y0307D02*
D03*
D37*
X032992Y031606D02*
D03*
Y0307D02*
D03*
Y029794D02*
D03*
D38*
X033978Y03305D02*
D03*
X031222D02*
D03*
Y035D02*
D03*
X033978D02*
D03*
D39*
X031308Y041962D02*
D03*
X03131Y04272D02*
D03*
X032292Y042348D02*
D03*
X031308Y044062D02*
D03*
X03131Y04482D02*
D03*
X032292Y044448D02*
D03*
D40*
X02993Y04779D02*
D03*
Y04729D02*
D03*
Y04679D02*
D03*
Y04629D02*
D03*
Y04579D02*
D03*
Y04529D02*
D03*
Y04479D02*
D03*
Y04429D02*
D03*
X02737Y04429D02*
D03*
Y04479D02*
D03*
Y04529D02*
D03*
Y04579D02*
D03*
Y04629D02*
D03*
Y04679D02*
D03*
Y04729D02*
D03*
D41*
Y04779D02*
D03*
D42*
X02685Y043244D02*
D03*
Y043756D02*
D03*
X02445Y043244D02*
D03*
Y043756D02*
D03*
D43*
X023306Y034454D02*
D03*
X023806D02*
D03*
X024306D02*
D03*
X024806D02*
D03*
X025306D02*
D03*
X025806D02*
D03*
X026306D02*
D03*
X026806D02*
D03*
X027306D02*
D03*
X027806D02*
D03*
X028306D02*
D03*
X028806D02*
D03*
X029306D02*
D03*
X029806D02*
D03*
Y041146D02*
D03*
X029306D02*
D03*
X028806D02*
D03*
X028306D02*
D03*
X027806D02*
D03*
X027306D02*
D03*
X026806D02*
D03*
X026306D02*
D03*
X025806D02*
D03*
X025306D02*
D03*
X024806D02*
D03*
X024306D02*
D03*
X023806D02*
D03*
X023306D02*
D03*
D44*
X0302Y03555D02*
D03*
Y03605D02*
D03*
Y03655D02*
D03*
Y03705D02*
D03*
Y03755D02*
D03*
Y03805D02*
D03*
Y03855D02*
D03*
Y03905D02*
D03*
Y03955D02*
D03*
Y04005D02*
D03*
D45*
X025537Y036684D02*
D03*
Y037406D02*
D03*
Y038129D02*
D03*
X026259Y036684D02*
D03*
Y037406D02*
D03*
Y038129D02*
D03*
X026981Y036684D02*
D03*
Y037406D02*
D03*
Y038129D02*
D03*
M02*
