G04*
G04 #@! TF.GenerationSoftware,Altium Limited,Altium Designer,21.3.2 (30)*
G04*
G04 Layer_Color=128*
%FSTAX24Y24*%
%MOIN*%
G70*
G04*
G04 #@! TF.SameCoordinates,4D29D3D3-CB23-4B61-9135-448C7089281F*
G04*
G04*
G04 #@! TF.FilePolarity,Positive*
G04*
G01*
G75*
%ADD106C,0.0020*%
D106*
X023425Y048163D02*
X023701D01*
X023563Y048025D02*
Y048301D01*
X023425Y044761D02*
X023701D01*
X023563Y044624D02*
Y044899D01*
X025059Y044761D02*
X025335D01*
X025197Y044624D02*
Y044899D01*
X025059Y048163D02*
X025335D01*
X025197Y048025D02*
Y048301D01*
X024852Y0476D02*
X025148D01*
X025Y047452D02*
Y047748D01*
X024852Y045324D02*
X025148D01*
X025Y045177D02*
Y045472D01*
X049455Y03035D02*
X050045D01*
X04975Y030055D02*
Y030645D01*
X050955Y02835D02*
X051545D01*
X05125Y028055D02*
Y028645D01*
X048455Y02835D02*
X049045D01*
X04875Y028055D02*
Y028645D01*
X046373Y030089D02*
X046727D01*
X04655Y029912D02*
Y030266D01*
X046373Y028711D02*
X046727D01*
X04655Y028534D02*
Y028888D01*
X043353Y03016D02*
X043667D01*
X04351Y030003D02*
Y030317D01*
X043353Y02916D02*
X043667D01*
X04351Y029003D02*
Y029317D01*
X023403Y0286D02*
X023797D01*
X0236Y028403D02*
Y028797D01*
X023403Y0296D02*
X023797D01*
X0236Y029403D02*
Y029797D01*
X023403Y0306D02*
X023797D01*
X0236Y030403D02*
Y030797D01*
X023403Y0316D02*
X023797D01*
X0236Y031403D02*
Y031797D01*
X023433Y02625D02*
X023867D01*
X02365Y026033D02*
Y026467D01*
X024433Y02625D02*
X024867D01*
X02465Y026033D02*
Y026467D01*
X02645Y0295D02*
X02775D01*
X0271Y02885D02*
Y03015D01*
X0314Y0477D02*
X0327D01*
X03205Y04705D02*
Y04835D01*
X05025Y03655D02*
X05155D01*
X0509Y0359D02*
Y0372D01*
X044674Y040697D02*
X045124D01*
X044899Y040472D02*
Y040922D01*
X03995Y040697D02*
X0404D01*
X040175Y040472D02*
Y040922D01*
X04475Y0455D02*
X0452D01*
X044975Y045275D02*
Y045725D01*
X03995Y0455D02*
X0404D01*
X040175Y045275D02*
Y045725D01*
X042312Y039909D02*
X042762D01*
X042537Y039684D02*
Y040134D01*
X035787Y039909D02*
X036237D01*
X036012Y039684D02*
Y040134D01*
X033425Y0455D02*
X033875D01*
X03365Y045275D02*
Y045725D01*
X038225Y0455D02*
X038675D01*
X03845Y045275D02*
Y045725D01*
X033425Y040697D02*
X033875D01*
X03365Y040472D02*
Y040922D01*
X038149Y040697D02*
X038599D01*
X038374Y040472D02*
Y040922D01*
X037774Y0479D02*
X038326D01*
X03805Y047624D02*
Y048176D01*
X033769Y0479D02*
X034321D01*
X034045Y047624D02*
Y048176D01*
X035769Y0479D02*
X036321D01*
X036045Y047624D02*
Y048176D01*
X044252Y0479D02*
X044803D01*
X044528Y047624D02*
Y048176D01*
X040247Y0479D02*
X040798D01*
X040522Y047624D02*
Y048176D01*
X042247Y0479D02*
X042798D01*
X042523Y047624D02*
Y048176D01*
X048837Y039909D02*
X049287D01*
X049062Y039684D02*
Y040134D01*
X046475Y0455D02*
X046925D01*
X0467Y045275D02*
Y045725D01*
X051275Y0455D02*
X051725D01*
X0515Y045275D02*
Y045725D01*
X046475Y040697D02*
X046925D01*
X0467Y040472D02*
Y040922D01*
X051199Y040697D02*
X051649D01*
X051424Y040472D02*
Y040922D01*
X050729Y0479D02*
X051281D01*
X051005Y047624D02*
Y048176D01*
X046724Y0479D02*
X047276D01*
X047Y047624D02*
Y048176D01*
X048724Y0479D02*
X049276D01*
X049Y047624D02*
Y048176D01*
X033991Y03715D02*
X034109D01*
X03405Y037091D02*
Y037209D01*
X036541Y036173D02*
X036659D01*
X0366Y036114D02*
Y036232D01*
X032241Y03375D02*
X032359D01*
X0323Y033691D02*
Y033809D01*
X036391Y03145D02*
X036509D01*
X03645Y031391D02*
Y031509D01*
X034841Y03145D02*
X034959D01*
X0349Y031391D02*
Y031509D01*
X049021Y03145D02*
X049179D01*
X0491Y031371D02*
Y031529D01*
X049421Y03145D02*
X049579D01*
X0495Y031371D02*
Y031529D01*
X049821Y03145D02*
X049979D01*
X0499Y031371D02*
Y031529D01*
X050221Y03145D02*
X050379D01*
X0503Y031371D02*
Y031529D01*
X050621Y03145D02*
X050779D01*
X0507Y031371D02*
Y031529D01*
X051021Y03145D02*
X051179D01*
X0511Y031371D02*
Y031529D01*
X051421Y03145D02*
X051579D01*
X0515Y031371D02*
Y031529D01*
X049021Y0319D02*
X049179D01*
X0491Y031821D02*
Y031979D01*
X049421Y0319D02*
X049579D01*
X0495Y031821D02*
Y031979D01*
X049821Y0319D02*
X049979D01*
X0499Y031821D02*
Y031979D01*
X050221Y0319D02*
X050379D01*
X0503Y031821D02*
Y031979D01*
X050621Y0319D02*
X050779D01*
X0507Y031821D02*
Y031979D01*
X051021Y0319D02*
X051179D01*
X0511Y031821D02*
Y031979D01*
X051421Y0319D02*
X051579D01*
X0515Y031821D02*
Y031979D01*
X049021Y03235D02*
X049179D01*
X0491Y032271D02*
Y032429D01*
X049421Y03235D02*
X049579D01*
X0495Y032271D02*
Y032429D01*
X049821Y03235D02*
X049979D01*
X0499Y032271D02*
Y032429D01*
X050221Y03235D02*
X050379D01*
X0503Y032271D02*
Y032429D01*
X050621Y03235D02*
X050779D01*
X0507Y032271D02*
Y032429D01*
X051021Y03235D02*
X051179D01*
X0511Y032271D02*
Y032429D01*
X051421Y03235D02*
X051579D01*
X0515Y032271D02*
Y032429D01*
X049021Y0328D02*
X049179D01*
X0491Y032721D02*
Y032879D01*
X049421Y0328D02*
X049579D01*
X0495Y032721D02*
Y032879D01*
X049821Y0328D02*
X049979D01*
X0499Y032721D02*
Y032879D01*
X050221Y0328D02*
X050379D01*
X0503Y032721D02*
Y032879D01*
X050621Y0328D02*
X050779D01*
X0507Y032721D02*
Y032879D01*
X051021Y0328D02*
X051179D01*
X0511Y032721D02*
Y032879D01*
X051421Y0328D02*
X051579D01*
X0515Y032721D02*
Y032879D01*
X049021Y03325D02*
X049179D01*
X0491Y033171D02*
Y033329D01*
X049421Y03325D02*
X049579D01*
X0495Y033171D02*
Y033329D01*
X049821Y03325D02*
X049979D01*
X0499Y033171D02*
Y033329D01*
X050221Y03325D02*
X050379D01*
X0503Y033171D02*
Y033329D01*
X050621Y03325D02*
X050779D01*
X0507Y033171D02*
Y033329D01*
X051021Y03325D02*
X051179D01*
X0511Y033171D02*
Y033329D01*
X051421Y03325D02*
X051579D01*
X0515Y033171D02*
Y033329D01*
X049021Y0337D02*
X049179D01*
X0491Y033621D02*
Y033779D01*
X049421Y0337D02*
X049579D01*
X0495Y033621D02*
Y033779D01*
X049821Y0337D02*
X049979D01*
X0499Y033621D02*
Y033779D01*
X050221Y0337D02*
X050379D01*
X0503Y033621D02*
Y033779D01*
X050621Y0337D02*
X050779D01*
X0507Y033621D02*
Y033779D01*
X051021Y0337D02*
X051179D01*
X0511Y033621D02*
Y033779D01*
X051421Y0337D02*
X051579D01*
X0515Y033621D02*
Y033779D01*
X049021Y03415D02*
X049179D01*
X0491Y034071D02*
Y034229D01*
X049421Y03415D02*
X049579D01*
X0495Y034071D02*
Y034229D01*
X049821Y03415D02*
X049979D01*
X0499Y034071D02*
Y034229D01*
X050221Y03415D02*
X050379D01*
X0503Y034071D02*
Y034229D01*
X050621Y03415D02*
X050779D01*
X0507Y034071D02*
Y034229D01*
X051021Y03415D02*
X051179D01*
X0511Y034071D02*
Y034229D01*
X051421Y03415D02*
X051579D01*
X0515Y034071D02*
Y034229D01*
X049021Y0346D02*
X049179D01*
X0491Y034521D02*
Y034679D01*
X049421Y0346D02*
X049579D01*
X0495Y034521D02*
Y034679D01*
X049821Y0346D02*
X049979D01*
X0499Y034521D02*
Y034679D01*
X050221Y0346D02*
X050379D01*
X0503Y034521D02*
Y034679D01*
X050621Y0346D02*
X050779D01*
X0507Y034521D02*
Y034679D01*
X051021Y0346D02*
X051179D01*
X0511Y034521D02*
Y034679D01*
X051421Y0346D02*
X051579D01*
X0515Y034521D02*
Y034679D01*
X051421Y03505D02*
X051579D01*
X0515Y034971D02*
Y035129D01*
X051021Y03505D02*
X051179D01*
X0511Y034971D02*
Y035129D01*
X050621Y03505D02*
X050779D01*
X0507Y034971D02*
Y035129D01*
X050221Y03505D02*
X050379D01*
X0503Y034971D02*
Y035129D01*
X049821Y03505D02*
X049979D01*
X0499Y034971D02*
Y035129D01*
X049421Y03505D02*
X049579D01*
X0495Y034971D02*
Y035129D01*
X049021Y03505D02*
X049179D01*
X0491Y034971D02*
Y035129D01*
X030491Y0303D02*
X030609D01*
X03055Y030241D02*
Y030359D01*
X029741Y029D02*
X029859D01*
X0298Y028941D02*
Y029059D01*
X027591Y0277D02*
X027709D01*
X02765Y027641D02*
Y027759D01*
X028241Y0335D02*
X028359D01*
X0283Y033441D02*
Y033559D01*
X027741Y0334D02*
X027859D01*
X0278Y033341D02*
Y033459D01*
X023747Y035194D02*
X023865D01*
X023806Y035135D02*
Y035253D01*
X024541Y03355D02*
X024659D01*
X0246Y033491D02*
Y033609D01*
X029241Y04035D02*
X029359D01*
X0293Y040291D02*
Y040409D01*
X028741Y04D02*
X028859D01*
X0288Y039941D02*
Y040059D01*
X039191Y03145D02*
X039309D01*
X03925Y031391D02*
Y031509D01*
X028241Y04D02*
X028359D01*
X0283Y039941D02*
Y040059D01*
X035491Y0277D02*
X035609D01*
X03555Y027641D02*
Y027759D01*
X029941Y03355D02*
X030059D01*
X03Y033491D02*
Y033609D01*
X039841Y0277D02*
X039959D01*
X0399Y027641D02*
Y027759D01*
X029291Y0334D02*
X029409D01*
X02935Y033341D02*
Y033459D01*
X028791Y0334D02*
X028909D01*
X02885Y033341D02*
Y033459D01*
X034291Y02765D02*
X034409D01*
X03435Y027591D02*
Y027709D01*
X026641Y03285D02*
X026759D01*
X0267Y032791D02*
Y032909D01*
X024941Y0304D02*
X025059D01*
X025Y030341D02*
Y030459D01*
X025141Y0286D02*
X025259D01*
X0252Y028541D02*
Y028659D01*
X032541Y04405D02*
X032659D01*
X0326Y043991D02*
Y044109D01*
X030191Y04115D02*
X030309D01*
X03025Y041091D02*
Y041209D01*
X030941Y0434D02*
X031059D01*
X031Y043341D02*
Y043459D01*
X02988Y0463D02*
X029998D01*
X029939Y046241D02*
Y046359D01*
X031991Y04165D02*
X032109D01*
X03205Y041591D02*
Y041709D01*
X031251Y04482D02*
X031369D01*
X03131Y044761D02*
Y044879D01*
X027311Y04629D02*
X02743D01*
X02737Y046231D02*
Y046349D01*
X029341Y0485D02*
X029459D01*
X0294Y048441D02*
Y048559D01*
X027241Y0421D02*
X027359D01*
X0273Y042041D02*
Y042159D01*
X027901Y04729D02*
X028019D01*
X02796Y047231D02*
Y047349D01*
X025191Y04325D02*
X025309D01*
X02525Y043191D02*
Y043309D01*
X026591Y04475D02*
X026709D01*
X02665Y044691D02*
Y044809D01*
X026141Y0462D02*
X026259D01*
X0262Y046141D02*
Y046259D01*
X027001Y04579D02*
X027119D01*
X02706Y045731D02*
Y045849D01*
X046009Y03885D02*
X046167D01*
X046088Y038771D02*
Y038929D01*
X039621Y03885D02*
X039779D01*
X0397Y038771D02*
Y038929D01*
X033346Y038875D02*
X033504D01*
X033425Y038796D02*
Y038954D01*
X038621Y03685D02*
X038779D01*
X0387Y036771D02*
Y036929D01*
X040921Y0371D02*
X041079D01*
X041Y037021D02*
Y037179D01*
X041321Y0361D02*
X041479D01*
X0414Y036021D02*
Y036179D01*
X047471Y03715D02*
X047629D01*
X04755Y037071D02*
Y037229D01*
X045171Y027655D02*
X045329D01*
X04525Y027576D02*
Y027733D01*
X046071Y0347D02*
X046229D01*
X04615Y034621D02*
Y034779D01*
X045971Y0347D02*
X046129D01*
X04605Y034621D02*
Y034779D01*
X045871Y0347D02*
X046029D01*
X04595Y034621D02*
Y034779D01*
X045771Y0347D02*
X045929D01*
X04585Y034621D02*
Y034779D01*
X045671Y0347D02*
X045829D01*
X04575Y034621D02*
Y034779D01*
X045571Y0347D02*
X045729D01*
X04565Y034621D02*
Y034779D01*
X045471Y0347D02*
X045629D01*
X04555Y034621D02*
Y034779D01*
X045371Y0347D02*
X045529D01*
X04545Y034621D02*
Y034779D01*
X045271Y0347D02*
X045429D01*
X04535Y034621D02*
Y034779D01*
M02*
