G04*
G04 #@! TF.GenerationSoftware,Altium Limited,Altium Designer,21.3.2 (30)*
G04*
G04 Layer_Color=255*
%FSTAX24Y24*%
%MOIN*%
G70*
G04*
G04 #@! TF.SameCoordinates,4D29D3D3-CB23-4B61-9135-448C7089281F*
G04*
G04*
G04 #@! TF.FilePolarity,Positive*
G04*
G01*
G75*
%ADD90O,0.0984X0.0591*%
%ADD91C,0.0295*%
%ADD92R,0.1600X0.1000*%
%ADD93R,0.1000X0.1600*%
%ADD94R,0.0827X0.0827*%
%ADD95C,0.0827*%
%ADD96R,0.0630X0.0630*%
%ADD97C,0.0630*%
%ADD98C,0.0594*%
%ADD99R,0.0630X0.0630*%
%ADD100C,0.1299*%
%ADD101C,0.1200*%
%ADD102R,0.0787X0.0984*%
D90*
X023563Y048163D02*
D03*
Y044761D02*
D03*
X025197D02*
D03*
Y048163D02*
D03*
D91*
X025Y0476D02*
D03*
Y045324D02*
D03*
D92*
X04975Y03035D02*
D03*
D93*
X05125Y02835D02*
D03*
X04875D02*
D03*
D94*
X04655Y030089D02*
D03*
D95*
Y028711D02*
D03*
D96*
X04351Y03016D02*
D03*
D97*
Y02916D02*
D03*
X02465Y02625D02*
D03*
D98*
X0236Y0286D02*
D03*
Y0296D02*
D03*
Y0306D02*
D03*
Y0316D02*
D03*
D99*
X02365Y02625D02*
D03*
D100*
X0271Y0295D02*
D03*
X03205Y0477D02*
D03*
X0509Y03655D02*
D03*
D101*
X044899Y040697D02*
D03*
X040175D02*
D03*
X044975Y0455D02*
D03*
X040175D02*
D03*
X042537Y039909D02*
D03*
X036012D02*
D03*
X03365Y0455D02*
D03*
X03845D02*
D03*
X03365Y040697D02*
D03*
X038374D02*
D03*
X049062Y039909D02*
D03*
X0467Y0455D02*
D03*
X0515D02*
D03*
X0467Y040697D02*
D03*
X051424D02*
D03*
D102*
X03805Y0479D02*
D03*
X034045D02*
D03*
X036045D02*
D03*
X044528D02*
D03*
X040522D02*
D03*
X042523D02*
D03*
X051005D02*
D03*
X047D02*
D03*
X049D02*
D03*
M02*
